# xmcd
#
# Track frame offsets: 
#        150
#        5104
#        9479
#        26644
#        47326
#        56253
#        79561
#        101971
#        126155
#        145008
#        162454
#        188501
#
# Disc length: 2826 seconds
#
# Revision: 0
# Processed by: cddbd v1.5.2PL0 Copyright (c) Steve Scherf et al.
# Submitted via: ExactAudioCopy v0.95b3
#
DISCID=900b080c
DTITLE=Tom Bennett - The Man Who Shook The Trail of The Devil's Hounds
DYEAR=2013
DGENRE=Blues
TTITLE0=Intro (by Martin Willcocks)
TTITLE1=The Man Who Shook The Trail of The Devil's Hounds
TTITLE2=Satan, I'm Knockin' on Your Door
TTITLE3=My Drunken Lover
TTITLE4=Hitchhiker's Harmonica
TTITLE5=Where Ya Keep Your Love
TTITLE6=Hell is Empty and The Devils Are Here
TTITLE7=If I Could Die Anywhere
TTITLE8=Governor, We Cannot Breathe
TTITLE9=Just Another Ghost At The Peery Hotel
TTITLE10=Sharecropper blues
TTITLE11=Roy's Song
EXTD=
EXTT0=
EXTT1=
EXTT2=
EXTT3=
EXTT4=
EXTT5=
EXTT6=
EXTT7=
EXTT8=
EXTT9=
EXTT10=
EXTT11=
PLAYORDER=
